<mxfile host="Electron" modified="2023-09-29T13:17:30.259Z" agent="Mozilla/5.0 (X11; Linux x86_64) AppleWebKit/537.36 (KHTML, like Gecko) draw.io/22.0.0 Chrome/114.0.5735.289 Electron/25.8.3 Safari/537.36" etag="2az8fM0ij5EiI5LI_CYP" version="22.0.0" type="device">
  <diagram name="Page-1" id="xVs0e0fLdtypwwEe6VS5">
    <mxGraphModel dx="446" dy="411" grid="1" gridSize="10" guides="1" tooltips="1" connect="1" arrows="1" fold="1" page="1" pageScale="1" pageWidth="850" pageHeight="1100" math="0" shadow="0">
      <root>
        <mxCell id="0" />
        <mxCell id="1" parent="0" />
        <mxCell id="5wQoTCts9_gzU7Cf3eyE-5" value="Runner" style="rounded=0;whiteSpace=wrap;html=1;verticalAlign=top;" vertex="1" parent="1">
          <mxGeometry x="401.25" y="135" width="150" height="110" as="geometry" />
        </mxCell>
        <mxCell id="5wQoTCts9_gzU7Cf3eyE-9" style="edgeStyle=orthogonalEdgeStyle;rounded=0;orthogonalLoop=1;jettySize=auto;html=1;entryX=1.009;entryY=0.407;entryDx=0;entryDy=0;entryPerimeter=0;" edge="1" parent="1" source="5wQoTCts9_gzU7Cf3eyE-1" target="5wQoTCts9_gzU7Cf3eyE-6">
          <mxGeometry relative="1" as="geometry" />
        </mxCell>
        <mxCell id="5wQoTCts9_gzU7Cf3eyE-1" value="MLFlow" style="shape=datastore;whiteSpace=wrap;html=1;" vertex="1" parent="1">
          <mxGeometry x="420" y="20" width="60" height="60" as="geometry" />
        </mxCell>
        <mxCell id="5wQoTCts9_gzU7Cf3eyE-7" style="edgeStyle=orthogonalEdgeStyle;rounded=0;orthogonalLoop=1;jettySize=auto;html=1;" edge="1" parent="1" source="5wQoTCts9_gzU7Cf3eyE-2" target="5wQoTCts9_gzU7Cf3eyE-6">
          <mxGeometry relative="1" as="geometry" />
        </mxCell>
        <mxCell id="5wQoTCts9_gzU7Cf3eyE-8" value="Tree + Config" style="edgeLabel;html=1;align=center;verticalAlign=middle;resizable=0;points=[];" vertex="1" connectable="0" parent="5wQoTCts9_gzU7Cf3eyE-7">
          <mxGeometry x="-0.4145" y="2" relative="1" as="geometry">
            <mxPoint x="24" y="2" as="offset" />
          </mxGeometry>
        </mxCell>
        <mxCell id="5wQoTCts9_gzU7Cf3eyE-2" value="UI" style="rounded=0;whiteSpace=wrap;html=1;" vertex="1" parent="1">
          <mxGeometry x="200" y="145" width="80" height="60" as="geometry" />
        </mxCell>
        <mxCell id="5wQoTCts9_gzU7Cf3eyE-11" style="edgeStyle=orthogonalEdgeStyle;rounded=0;orthogonalLoop=1;jettySize=auto;html=1;exitX=0.5;exitY=1;exitDx=0;exitDy=0;entryX=0.5;entryY=0;entryDx=0;entryDy=0;" edge="1" parent="1" source="5wQoTCts9_gzU7Cf3eyE-6" target="5wQoTCts9_gzU7Cf3eyE-10">
          <mxGeometry relative="1" as="geometry" />
        </mxCell>
        <mxCell id="5wQoTCts9_gzU7Cf3eyE-6" value="Builder" style="rounded=0;whiteSpace=wrap;html=1;" vertex="1" parent="1">
          <mxGeometry x="437.5" y="160" width="75" height="30" as="geometry" />
        </mxCell>
        <mxCell id="5wQoTCts9_gzU7Cf3eyE-10" value="Runner" style="rounded=0;whiteSpace=wrap;html=1;" vertex="1" parent="1">
          <mxGeometry x="440" y="205" width="72.5" height="25" as="geometry" />
        </mxCell>
        <mxCell id="5wQoTCts9_gzU7Cf3eyE-12" style="edgeStyle=orthogonalEdgeStyle;rounded=0;orthogonalLoop=1;jettySize=auto;html=1;exitX=0;exitY=0.5;exitDx=0;exitDy=0;entryX=0.54;entryY=0.993;entryDx=0;entryDy=0;entryPerimeter=0;" edge="1" parent="1" source="5wQoTCts9_gzU7Cf3eyE-10" target="5wQoTCts9_gzU7Cf3eyE-2">
          <mxGeometry relative="1" as="geometry">
            <Array as="points">
              <mxPoint x="440" y="225" />
              <mxPoint x="243" y="225" />
            </Array>
          </mxGeometry>
        </mxCell>
        <mxCell id="5wQoTCts9_gzU7Cf3eyE-13" value="Visualizations" style="edgeLabel;html=1;align=center;verticalAlign=middle;resizable=0;points=[];" vertex="1" connectable="0" parent="5wQoTCts9_gzU7Cf3eyE-12">
          <mxGeometry x="0.0386" relative="1" as="geometry">
            <mxPoint x="19" as="offset" />
          </mxGeometry>
        </mxCell>
      </root>
    </mxGraphModel>
  </diagram>
</mxfile>
